<svg xmlns="http://www.w3.org/2000/svg" viewBox="0 0 256.61 168.14"><defs><style>.cls-1{fill:#1d1d1b;}.cls-2{fill:none;}</style></defs><title>Datový zdroj 1</title><g id="Vrstva_2" data-name="Vrstva 2"><g id="Vrstva_1-2" data-name="Vrstva 1"><path class="cls-1" d="M125.73,0H60.47l22.47,22.5H99.66V145.64H83l-22.5,22.5h65.26L256.61,82.73Zm-2.41,25L215,83l-91.64,59.67Z"/><path class="cls-1" d="M60.25,11.27,49,0l0,0H0V168.14H49l0,0,11.24-11.23,11.26-11.27V22.54ZM49,138.58l-6,7H22.5V22.51H43l6,7Z"/><polygon class="cls-1" points="49.01 0.01 49.01 0.04 48.99 0.01 49.01 0.01"/><polygon class="cls-1" points="256.52 0 256.52 74.23 233.99 59.95 233.99 0 256.52 0"/><polyline class="cls-2" points="82.96 22.53 82.94 22.5 60.46 0"/><polyline class="cls-2" points="60.46 168.13 82.96 145.63 82.99 145.6"/></g></g></svg>